<svg id="Layer_1" data-name="Layer 1" xmlns="http://www.w3.org/2000/svg" viewBox="0 0 57.77 46.92"><defs><style>.cls-1{fill:#00b9f2;}</style></defs><title>Crown</title><path class="cls-1" d="M29.65,15.32a6.36,6.36,0,0,0,3,0c2.12,3.92,4.13,7.79,6.06,11.6q1.56-1.81,3.17-3.63c-1.11-2.23-3.26-6.6-5.37-10.58a6.57,6.57,0,1,0-10.74,0C20.29,23,13.94,36.45,12,40.38c-.26-5.86-.75-11.73-1.32-17.66q2.5,2.62,4.85,5.26,1-2.06,2-4.14-1.8-2-3.67-4l-.1,0a6.16,6.16,0,1,0-7.68,2.8A224.28,224.28,0,0,1,8,49.28h4.21c2.76-5.28,5.32-10.53,8-15.86l2.06-4.1C24.63,24.73,27,20.07,29.65,15.32ZM31.16,6.6a2.33,2.33,0,1,1-2.33,2.33A2.33,2.33,0,0,1,31.16,6.6ZM8.36,19.13a2.18,2.18,0,1,1,2.18-2.18A2.18,2.18,0,0,1,8.36,19.13Z" transform="translate(-2.2 -2.35)"/><path class="cls-1" d="M60,16.95a6.16,6.16,0,1,0-11.62,2.85l-.18-.06.18.07,0,.09C42,26.65,36.45,33.48,31.14,40.19c-2.34-2.94-4.72-5.9-7.2-8.87l-2.12,4C25,39.24,28.1,43.11,31.14,47c6.32-8,12.79-16.19,20.5-24.25-.57,5.94-1.05,11.81-1.32,17.67-1.5-3.09-3.41-6.48-4.18-8.06q-1.47,1.78-2.88,3.56c2.25,4.48,4.46,8.93,6.82,13.39h4.21a224.7,224.7,0,0,1,2-26.68A6.17,6.17,0,0,0,60,16.95ZM53.8,14.77a2.18,2.18,0,1,1-2.18,2.18A2.18,2.18,0,0,1,53.8,14.77Z" transform="translate(-2.2 -2.35)"/></svg>